{"title":"Bloodline.S02.2160p.NF.WEBRip.DD5.1.x264-NTb","uid":15267617,"size":186184926993,"categoryP":"video","categoryS":"hd___tv_shows","magnet":"?xt=urn:btih:4d7b8b9fa38fcf8bef9be0ee62e82c528afe2253&amp;dn=Bloodline.S02.2160p.NF.WEBRip.DD5.1.x264-NTb&amp;tr=udp%3A%2F%2Ftracker.leechers-paradise.org%3A6969&amp;tr=udp%3A%2F%2Fzer0day.ch%3A1337&amp;tr=udp%3A%2F%2Fopen.demonii.com%3A1337&amp;tr=udp%3A%2F%2Ftracker.coppersurfer.tk%3A6969&amp;tr=udp%3A%2F%2Fexodus.desync.com%3A6969","seeders":3,"leechers":2,"uploader":"BreexeOX","files":10,"time":1468232564,"description":"General\r\nFormat                         : Matroska\r\nFormat version                 : Version 4 / Version 2\r\nFile size                      : 15.2 GiB\r\nDuration                       : 1h 0mn\r\nOverall bit rate               : 36.1 Mbps\r\nEncoded date                   : UTC 2016-05-30 19:15:43\r\nWriting application            : mkvmerge v7.6.0 ('Garden of Dreams') 64bit built on Feb  8 2015 13:04:34\r\n\r\nVideo\r\nID                             : 1\r\nFormat                         : AVC\r\nFormat/Info                    : Advanced Video Codec\r\nFormat profile                 :   \r\nFormat settings, CABAC         : Yes\r\nFormat settings, ReFrames      : 5 frames\r\nCodec ID                       : V_MPEG4/ISO/AVC\r\nDuration                       : 1h 0mn\r\nBit rate                       : 35.0 Mbps\r\nWidth                          : 3 840 pixels\r\nHeight                         : 2 160 pixels\r\nDisplay aspect ratio           : 16:9\r\nFrame rate mode                : Constant\r\nFrame rate                     : 23.976 (24000/1001) fps\r\nColor space                    : YUV\r\nChroma subsampling             : 4:2:0\r\nBit depth                      : 8 bits\r\nScan type                      : Progressive\r\nBits/(Pixel*Frame)             : 0.176\r\nStream size                    : 14.7 GiB (97%)\r\nLanguage                       : English\r\nDefault                        : Yes\r\nForced                         : No\r\n\r\nAudio\r\nID                             : 2\r\nFormat                         : AC-3\r\nFormat/Info                    : Audio Coding 3\r\nMode extension                 : CM (complete main)\r\nFormat settings, Endianness    : Big\r\nCodec ID                       : A_AC3\r\nDuration                       : 1h 0mn\r\nBit rate mode                  : Constant\r\nBit rate                       : 384 Kbps\r\nChannel(s)                     : 6 channels\r\nChannel positions              : Front: L C R, Side: L R, LFE\r\nSampling rate                  : 48.0 KHz\r\nFrame rate                     : 31.250 fps (1536 spf)\r\nCompression mode               : Lossy\r\nStream size                    : 165 MiB (1%)\r\nLanguage                       : English\r\nDefault                        : Yes\r\nForced                         : No\r\n\r\nText #1\r\nID                             : 3\r\nFormat                         : UTF-8\r\nCodec ID                       : S_TEXT/UTF8\r\nCodec ID/Info                  : UTF-8 Plain Text\r\nLanguage                       : English\r\nDefault                        : No\r\nForced                         : No\r\n\r\nText #2\r\nID                             : 4\r\nFormat                         : UTF-8\r\nCodec ID                       : S_TEXT/UTF8\r\nCodec ID/Info                  : UTF-8 Plain Text\r\nLanguage                       : Dutch\r\nDefault                        : No\r\nForced                         : No\r\n\r\nText #3\r\nID                             : 5\r\nFormat                         : UTF-8\r\nCodec ID                       : S_TEXT/UTF8\r\nCodec ID/Info                  : UTF-8 Plain Text\r\nLanguage                       : French\r\nDefault                        : No\r\nForced                         : No\r\n\r\nText #4\r\nID                             : 6\r\nFormat                         : UTF-8\r\nCodec ID                       : S_TEXT/UTF8\r\nCodec ID/Info                  : UTF-8 Plain Text\r\nLanguage                       : German\r\nDefault                        : No\r\nForced                         : No","torrent":{"xt":"urn:btih:4d7b8b9fa38fcf8bef9be0ee62e82c528afe2253","amp;dn":"Bloodline.S02.2160p.NF.WEBRip.DD5.1.x264-NTb","amp;tr":["udp%3A%2F%2Ftracker.leechers-paradise.org%3A6969","udp%3A%2F%2Fzer0day.ch%3A1337","udp%3A%2F%2Fopen.demonii.com%3A1337","udp%3A%2F%2Ftracker.coppersurfer.tk%3A6969","udp%3A%2F%2Fexodus.desync.com%3A6969"],"infoHash":"4d7b8b9fa38fcf8bef9be0ee62e82c528afe2253","infoHashBuffer":{"type":"Buffer","data":[77,123,139,159,163,143,207,139,239,155,224,238,98,232,44,82,138,254,34,83]},"announce":[],"urlList":[]}}